<svg width="27" height="27" viewBox="0 0 27 27" fill="none" xmlns="http://www.w3.org/2000/svg">
<path d="M12.808 4.65797C13.0647 4.0432 13.9356 4.0432 14.1923 4.65797L16.3938 9.93186C16.4964 10.1775 16.7215 10.3505 16.9854 10.3862L22.7877 11.1715C23.4379 11.2595 23.6697 12.081 23.1613 12.4958L18.6811 16.1518C18.4596 16.3326 18.3601 16.6235 18.4246 16.902L19.857 23.0919C20.0121 23.762 19.2585 24.27 18.6954 23.8748L13.931 20.5309C13.6724 20.3494 13.3279 20.3494 13.0693 20.5309L8.30486 23.8749C7.74183 24.27 6.98824 23.7621 7.14331 23.0919L8.57561 16.902C8.64006 16.6235 8.54058 16.3326 8.31911 16.1518L3.83896 12.4958C3.33064 12.081 3.56238 11.2595 4.21256 11.1715L10.015 10.3862C10.2788 10.3505 10.5039 10.1775 10.6065 9.93186L12.808 4.65797Z" stroke="#141414" stroke-width="2" stroke-miterlimit="3.3292" stroke-linecap="round" stroke-linejoin="round"/>
</svg>
