<svg width="28" height="27" viewBox="0 0 28 27" fill="none" xmlns="http://www.w3.org/2000/svg">
<path d="M4.00016 11.8801C4.00016 10.9266 4.45348 10.0298 5.22131 9.46442L14.0002 3L22.779 9.46443C23.5468 10.0298 24.0002 10.9266 24.0002 11.8801V22.5C24.0002 23.8807 22.8809 25 21.5002 25H18.0002C17.4479 25 17.0002 24.5523 17.0002 24V18C17.0002 17.7239 16.7763 17.5 16.5002 17.5H11.5002C11.224 17.5 11.0002 17.7239 11.0002 18V24C11.0002 24.5523 10.5524 25 10.0002 25H6.50016C5.11945 25 4.00016 23.8807 4.00016 22.5V11.8801Z" stroke="#141414" stroke-width="2" stroke-linecap="round" stroke-linejoin="round"/>
</svg>
